<?xml version="1.0" encoding="UTF-8"?>
<svg width="200" height="200" viewBox="0 0 200 200" xmlns="http://www.w3.org/2000/svg">
  <defs>
    <linearGradient id="bookGrad1" x1="0%" y1="0%" x2="0%" y2="100%">
      <stop offset="0%" style="stop-color:#4A90E2;stop-opacity:1" />
      <stop offset="100%" style="stop-color:#357ABD;stop-opacity:1" />
    </linearGradient>
    <linearGradient id="bookGrad2" x1="0%" y1="0%" x2="0%" y2="100%">
      <stop offset="0%" style="stop-color:#E74C3C;stop-opacity:1" />
      <stop offset="100%" style="stop-color:#C0392B;stop-opacity:1" />
    </linearGradient>
    <linearGradient id="bookGrad3" x1="0%" y1="0%" x2="0%" y2="100%">
      <stop offset="0%" style="stop-color:#2ECC71;stop-opacity:1" />
      <stop offset="100%" style="stop-color:#27AE60;stop-opacity:1" />
    </linearGradient>
    <linearGradient id="bookGrad4" x1="0%" y1="0%" x2="0%" y2="100%">
      <stop offset="0%" style="stop-color:#F39C12;stop-opacity:1" />
      <stop offset="100%" style="stop-color:#E67E22;stop-opacity:1" />
    </linearGradient>
    <linearGradient id="bookGrad5" x1="0%" y1="0%" x2="0%" y2="100%">
      <stop offset="0%" style="stop-color:#9B59B6;stop-opacity:1" />
      <stop offset="100%" style="stop-color:#8E44AD;stop-opacity:1" />
    </linearGradient>
  </defs>
  
  <!-- Background Circle -->
  <circle cx="100" cy="100" r="95" fill="#2C3E50" opacity="0.1"/>
  
  <!-- Shelf -->
  <rect x="30" y="140" width="140" height="8" fill="#34495E" rx="2"/>
  
  <!-- Book 1 (Blue - leaning left) -->
  <g transform="translate(45, 60) rotate(-8)">
    <rect x="0" y="0" width="20" height="80" fill="url(#bookGrad1)" rx="2"/>
    <rect x="2" y="2" width="16" height="76" fill="none" stroke="#ffffff" stroke-width="1" opacity="0.3" rx="1"/>
    <line x1="18" y1="0" x2="18" y2="80" stroke="#2C3E50" stroke-width="1.5" opacity="0.4"/>
  </g>
  
  <!-- Book 2 (Red - standing) -->
  <g transform="translate(70, 60)">
    <rect x="0" y="0" width="22" height="80" fill="url(#bookGrad2)" rx="2"/>
    <rect x="2" y="2" width="18" height="76" fill="none" stroke="#ffffff" stroke-width="1" opacity="0.3" rx="1"/>
    <line x1="20" y1="0" x2="20" y2="80" stroke="#2C3E50" stroke-width="1.5" opacity="0.4"/>
  </g>
  
  <!-- Book 3 (Green - standing) -->
  <g transform="translate(95, 65)">
    <rect x="0" y="0" width="24" height="75" fill="url(#bookGrad3)" rx="2"/>
    <rect x="2" y="2" width="20" height="71" fill="none" stroke="#ffffff" stroke-width="1" opacity="0.3" rx="1"/>
    <line x1="22" y1="0" x2="22" y2="75" stroke="#2C3E50" stroke-width="1.5" opacity="0.4"/>
  </g>
  
  <!-- Book 4 (Orange - standing) -->
  <g transform="translate(122, 58)">
    <rect x="0" y="0" width="20" height="82" fill="url(#bookGrad4)" rx="2"/>
    <rect x="2" y="2" width="16" height="78" fill="none" stroke="#ffffff" stroke-width="1" opacity="0.3" rx="1"/>
    <line x1="18" y1="0" x2="18" y2="82" stroke="#2C3E50" stroke-width="1.5" opacity="0.4"/>
  </g>
  
  <!-- Book 5 (Purple - leaning right) -->
  <g transform="translate(145, 62) rotate(8)">
    <rect x="0" y="0" width="22" height="78" fill="url(#bookGrad5)" rx="2"/>
    <rect x="2" y="2" width="18" height="74" fill="none" stroke="#ffffff" stroke-width="1" opacity="0.3" rx="1"/>
    <line x1="20" y1="0" x2="20" y2="78" stroke="#2C3E50" stroke-width="1.5" opacity="0.4"/>
  </g>
  
  <!-- Terminal/CLI indicator (bottom) -->
  <g transform="translate(60, 160)">
    <rect x="0" y="0" width="80" height="24" fill="#2C3E50" rx="3" opacity="0.8"/>
    <text x="8" y="16" font-family="monospace" font-size="12" fill="#2ECC71" font-weight="bold">&gt;_</text>
    <rect x="28" y="11" width="3" height="8" fill="#2ECC71" opacity="0.7">
      <animate attributeName="opacity" values="0.7;0;0.7" dur="1s" repeatCount="indefinite"/>
    </rect>
  </g>
  
  <!-- c7n branding (top right) -->
  <text x="150" y="30" font-family="monospace" font-size="20" fill="#34495E" font-weight="bold">c7n</text>
</svg>
